# xmcd
#
# Track frame offsets: 
#        150
#        15316
#        35672
#        73808
#        93620
#        107838
#        127688
#        142025
#        157539
#        175880
#
# Disc length: 2819 seconds
#
# Revision: 4
# Processed by: cddbd v1.5.2PL0 Copyright (c) Steve Scherf et al.
# Submitted via: ExactAudioCopyFreeDBPlugin 1.0
#
DISCID=7b0b010a
DTITLE=George Thorogood - George Thorogood and the Destroyers
DYEAR=1977
DGENRE=Blues
TTITLE0=You Got to Lose
TTITLE1=Madison Blues
TTITLE2=One Bourbon, One Scotch, One Beer
TTITLE3=Kind Hearted Woman
TTITLE4=Can't Stop Lovin'
TTITLE5=Ride on Josephine
TTITLE6=Homesick Boy
TTITLE7=John Hardy
TTITLE8=I'll Change My Style
TTITLE9=Delaware Slide
EXTD=YEAR: 1977
EXTT0=(E. Hooker)
EXTT1=(E. James)
EXTT2=(John Lee Hooker)
EXTT3=(Robert Johnson/arr. George Thorogood)
EXTT4=(E. James)
EXTT5=(E. McDaniel)
EXTT6=(G. Thorogood)
EXTT7=(Trad., arr. George Thorogood)
EXTT8=(Parker-Villa)
EXTT9=(George Thorogood)
PLAYORDER=
